<svg xmlns="http://www.w3.org/2000/svg" width="211" height="60" viewBox="0 0 211 60" fill="none"><g id="SKYCO_LOGO_-_FRAMED"><path id="Vector" d="M71.6863 34.544C73.1234 35.466 74.5438 36.1887 75.9476 36.712C77.3515 37.2353 78.6722 37.5012 79.8933 37.5012C81.1144 37.5012 81.9533 37.335 82.5597 37.0111C83.1661 36.6788 83.4734 36.1887 83.4734 35.5325C83.4734 35.1919 83.3406 34.9178 83.0747 34.7267C82.8089 34.5274 82.46 34.3696 82.0198 34.2367C81.5795 34.1038 81.0728 34.0041 80.4831 33.921C79.9016 33.8379 79.3035 33.7383 78.6888 33.6053C78.1073 33.4974 77.4179 33.3728 76.6371 33.2316C75.8563 33.0903 75.0505 32.8744 74.2282 32.6002C73.4058 32.3261 72.5917 31.9772 71.7777 31.5536C70.9636 31.13 70.241 30.59 69.6097 29.9338C68.9784 29.2776 68.4634 28.4968 68.073 27.583C67.6908 26.6776 67.4915 25.6061 67.4915 24.3684C67.4915 22.5575 67.8486 21.054 68.563 19.8745C69.2774 18.6949 70.1912 17.748 71.2959 17.0502C72.4007 16.3525 73.6301 15.8707 74.9841 15.5882C76.3381 15.3141 77.6505 15.1729 78.9297 15.1729C81.1642 15.1729 83.1578 15.4969 84.9271 16.1365C86.6964 16.7844 88.3827 17.723 90.0108 18.9607C90.2267 19.1435 90.343 19.3678 90.3679 19.6336C90.3929 19.8994 90.3264 20.132 90.1686 20.3396L87.0619 24.7173C86.9041 24.9249 86.6881 25.0578 86.4223 25.116C86.1565 25.1658 85.9156 25.116 85.7079 24.9581C84.3539 24.1192 83.0913 23.5211 81.9201 23.1639C80.7489 22.8067 79.6773 22.6323 78.6888 22.6323C78.3981 22.6323 78.0575 22.6323 77.6754 22.6489C77.2933 22.6655 76.9278 22.7153 76.5789 22.8067C76.2301 22.8981 75.9476 23.0476 75.7233 23.2636C75.4991 23.4713 75.3828 23.762 75.3828 24.1358C75.3828 24.5096 75.6652 24.8335 76.2218 25.1243C76.7783 25.415 77.4179 25.6642 78.1323 25.8719C78.8467 26.0795 79.5361 26.2457 80.2006 26.362C80.8652 26.4782 81.2888 26.553 81.4799 26.5779C82.4351 26.7607 83.4818 27.0348 84.6281 27.3837C85.7744 27.7409 86.8376 28.2642 87.8344 28.9619C88.8312 29.6597 89.6702 30.5651 90.3431 31.6865C91.0242 32.8079 91.3564 34.2034 91.3564 35.8897C91.3564 37.4679 91.074 38.8302 90.5175 39.9765C89.9609 41.1229 89.1801 42.0615 88.1833 42.8008C87.1865 43.5401 85.9904 44.08 84.5949 44.4372C83.1994 44.7944 81.6543 44.9688 79.9514 44.9688C78.5725 44.9688 77.285 44.8525 76.0888 44.6366C74.8927 44.4123 73.7796 44.1049 72.7413 43.7062C71.703 43.3158 70.7394 42.8423 69.8506 42.3024C68.9618 41.7625 68.1394 41.1893 67.4001 40.5829C67.1841 40.4251 67.0679 40.2091 67.0429 39.935C67.018 39.6609 67.0845 39.42 67.2423 39.204L70.3074 34.8264C70.4653 34.6188 70.6812 34.4858 70.947 34.436C71.2128 34.3862 71.4538 34.4194 71.6614 34.5523L71.6863 34.544Z" fill="#005B97"></path><path id="Vector_2" d="M111.849 43.7309L104.115 35.1667C103.933 34.9591 103.775 34.876 103.659 34.9342C103.542 34.984 103.476 35.1418 103.476 35.4076V43.4983C103.476 43.7641 103.384 43.9884 103.193 44.1711C103.011 44.3539 102.778 44.4453 102.512 44.4453H96.5315C96.2407 44.4453 96.0081 44.3539 95.8337 44.1711C95.6592 43.9884 95.5762 43.7641 95.5762 43.4983V16.51C95.5762 16.2442 95.6592 16.0199 95.8337 15.8372C96.0081 15.6545 96.2407 15.5631 96.5315 15.5631H102.512C102.778 15.5631 103.002 15.6545 103.193 15.8372C103.384 16.0199 103.476 16.2442 103.476 16.51V25.5809C103.476 25.8467 103.526 25.9962 103.634 26.0378C103.742 26.0793 103.874 25.9879 104.032 25.7803L111.201 16.3522C111.359 16.1446 111.583 15.9618 111.874 15.8206C112.165 15.6794 112.455 15.6046 112.754 15.6046H120.363C120.654 15.6046 120.837 15.7292 120.92 15.9784C121.003 16.2276 120.961 16.4602 120.803 16.6679L110.329 29.6428C110.171 29.8505 110.096 30.0997 110.113 30.3738C110.129 30.6479 110.229 30.8805 110.412 31.0633C111.317 32.0351 112.273 33.0486 113.278 34.1035C114.283 35.1584 115.288 36.2134 116.285 37.2766C117.281 38.3399 118.262 39.3948 119.233 40.4332C120.205 41.4715 121.127 42.435 122.008 43.3322C122.191 43.5398 122.257 43.7807 122.207 44.0382C122.157 44.304 121.983 44.437 121.692 44.437H113.444C113.153 44.437 112.854 44.3705 112.547 44.2376C112.239 44.1047 112.007 43.9386 111.849 43.7226V43.7309Z" fill="#005B97"></path><path id="Vector_3" d="M150.458 16.7093L140.498 32.683C140.365 32.9239 140.249 33.2063 140.141 33.5552C140.033 33.8957 139.983 34.2031 139.983 34.4606V43.4982C139.983 43.764 139.892 43.9883 139.709 44.1711C139.526 44.3538 139.302 44.4452 139.036 44.4452H133.047C132.781 44.4452 132.557 44.3538 132.374 44.1711C132.192 43.9883 132.1 43.764 132.1 43.4982V34.5021C132.1 34.2363 132.05 33.929 131.959 33.5718C131.868 33.2146 131.751 32.9322 131.618 32.7245C130.024 30.0165 128.395 27.3584 126.734 24.7584C125.073 22.1585 123.42 19.4754 121.775 16.7093C121.642 16.4684 121.617 16.2275 121.692 15.9783C121.775 15.7291 121.941 15.6045 122.207 15.6045H129.301C129.567 15.6045 129.841 15.6793 130.115 15.8371C130.397 15.9949 130.597 16.1943 130.73 16.4269L135.614 24.8664C135.747 25.0741 135.905 25.1821 136.087 25.1821C136.27 25.1821 136.428 25.0741 136.561 24.8664L141.404 16.4269C141.537 16.1943 141.744 15.9949 142.018 15.8371C142.292 15.6793 142.567 15.6045 142.832 15.6045H150.001C150.267 15.6045 150.458 15.6959 150.583 15.8786C150.699 16.0614 150.657 16.3355 150.441 16.7093H150.458Z" fill="#005B97"></path><path id="Vector_4" d="M179.108 36.7862C178.335 38.0156 177.488 39.137 176.558 40.1421C175.627 41.1472 174.589 42.0027 173.426 42.7171C172.271 43.4232 170.992 43.9714 169.58 44.3618C168.168 44.7523 166.615 44.9516 164.92 44.9516C162.793 44.9516 160.8 44.5529 158.939 43.7721C157.079 42.9829 155.45 41.9197 154.055 40.574C152.659 39.2283 151.563 37.6584 150.765 35.8392C149.968 34.0201 149.569 32.0929 149.569 30.0412C149.569 27.9894 149.968 26.054 150.765 24.2432C151.563 22.4323 152.659 20.854 154.055 19.5084C155.45 18.171 157.079 17.0994 158.939 16.3103C160.8 15.5212 162.793 15.1308 164.92 15.1308C166.673 15.1308 168.251 15.3301 169.663 15.7205C171.067 16.1193 172.346 16.6675 173.492 17.3736C174.63 18.0879 175.661 18.9435 176.583 19.9569C177.496 20.9703 178.344 22.0834 179.116 23.2879C179.249 23.4956 179.274 23.7199 179.199 23.9607C179.116 24.2016 178.958 24.3678 178.717 24.4757L173.061 26.6853C172.795 26.7933 172.529 26.7933 172.263 26.6853C171.997 26.5773 171.798 26.4195 171.665 26.2118C170.892 24.9991 169.962 24.077 168.874 23.4291C167.786 22.7812 166.473 22.4655 164.928 22.4655C163.923 22.4655 162.968 22.6732 162.079 23.0968C161.19 23.5205 160.409 24.077 159.745 24.7748C159.08 25.4725 158.565 26.2866 158.192 27.2086C157.818 28.1307 157.635 29.0859 157.635 30.0578C157.635 31.0297 157.818 32.0182 158.192 32.9236C158.565 33.8373 159.08 34.6348 159.745 35.3159C160.409 35.997 161.182 36.5536 162.079 36.9772C162.968 37.4009 163.915 37.6085 164.928 37.6085C166.39 37.6085 167.711 37.2597 168.891 36.5619C170.07 35.8641 171.009 34.967 171.698 33.8622C171.831 33.6546 172.022 33.4967 172.28 33.3888C172.537 33.2808 172.795 33.2808 173.061 33.3888L178.717 35.5983C178.958 35.7063 179.116 35.8641 179.199 36.0884C179.282 36.3127 179.249 36.5453 179.116 36.7779L179.108 36.7862Z" fill="#005B97"></path><path id="Vector_5" d="M180.819 30C180.819 27.9483 181.218 26.0128 182.015 24.202C182.812 22.3828 183.884 20.8046 185.246 19.4506C186.6 18.0966 188.195 17.0251 190.031 16.2359C191.867 15.4468 193.819 15.0481 195.887 15.0481C197.955 15.0481 199.908 15.4468 201.743 16.2359C203.579 17.0251 205.174 18.0966 206.545 19.4506C207.915 20.8046 208.995 22.3912 209.792 24.202C210.59 26.0128 210.989 27.9483 210.989 30C210.989 32.0518 210.59 33.9872 209.792 35.7981C208.995 37.6172 207.915 39.1955 206.545 40.5495C205.174 41.9035 203.579 42.975 201.743 43.7641C199.908 44.5533 197.955 44.9437 195.887 44.9437C193.819 44.9437 191.867 44.545 190.031 43.7641C188.195 42.975 186.6 41.9035 185.246 40.5495C183.892 39.1955 182.812 37.6089 182.015 35.7981C181.218 33.9872 180.819 32.0518 180.819 30ZM188.71 30C188.71 30.9968 188.893 31.9438 189.267 32.8409C189.64 33.738 190.147 34.5271 190.803 35.2083C191.451 35.8894 192.216 36.4377 193.096 36.8447C193.977 37.2517 194.899 37.4594 195.887 37.4594C196.876 37.4594 197.798 37.2517 198.678 36.8447C199.55 36.4377 200.323 35.8894 200.987 35.2083C201.652 34.5271 202.167 33.738 202.541 32.8409C202.915 31.9438 203.097 31.0051 203.097 30C203.097 28.9949 202.915 28.0895 202.541 27.1758C202.167 26.2621 201.652 25.4812 200.987 24.8084C200.323 24.1356 199.55 23.5956 198.678 23.1886C197.798 22.7816 196.867 22.5739 195.887 22.5739C194.907 22.5739 193.977 22.7816 193.096 23.1886C192.224 23.5956 191.46 24.1356 190.803 24.8084C190.156 25.4812 189.64 26.2704 189.267 27.1758C188.893 28.0812 188.71 29.0282 188.71 30Z" fill="#005B97"></path><path id="Vector_6" d="M29.8956 0.0960846L0 30H4.145L29.8956 4.2494L55.6462 30H59.7995L29.8956 0.0960846Z" fill="#6497B0"></path><path id="Vector_7" d="M29.8956 5.91071L5.8064 30L8.21534 32.4919H44.4323L29.8956 47.0286L21.3897 38.5226L17.8593 42.0529L29.904 54.0892L53.9849 30L51.4929 27.508H15.359L29.8956 12.9713L38.4183 21.494L41.9486 17.9636L29.8956 5.91071Z" fill="#005B97"></path><path id="Vector_8" d="M29.9039 59.9039L59.7995 30H55.6545L29.9039 55.7589L4.15332 30H0L29.9039 59.9039Z" fill="#193D6B"></path><path id="Vector_9" d="M29.8954 15.8787L24.9114 20.8626H34.8793L29.8954 15.8787Z" fill="#152148"></path><path id="Vector_10" d="M37.7951 22.1087H23.6655L20.7582 25.016H34.8795L37.7951 22.1087Z" fill="#152148"></path><path id="Vector_11" d="M16.8124 26.0542L16.6047 26.2619H50.2466L42.563 18.5783L35.087 26.0542H16.8124Z" fill="#152148"></path><path id="Vector_12" d="M29.8954 44.1294L34.8793 39.1454H24.9114L29.8954 44.1294Z" fill="#152148"></path><path id="Vector_13" d="M21.9958 37.8994H36.1254L39.0328 34.9921H24.9115L21.9958 37.8994Z" fill="#152148"></path><path id="Vector_14" d="M42.9784 33.9537L43.1861 33.746H9.54419L17.2278 41.4297L24.7038 33.9537H42.9784Z" fill="#152148"></path></g></svg>